<svg id="visual" viewBox="0 0 900 600" width="900" height="600" xmlns="http://www.w3.org/2000/svg" xmlns:xlink="http://www.w3.org/1999/xlink" version="1.1"><path d="M0 43L13.7 47C27.3 51 54.7 59 82 59C109.3 59 136.7 51 163.8 54C191 57 218 71 245.2 74C272.3 77 299.7 69 327 65C354.3 61 381.7 61 409 65C436.3 69 463.7 77 491 86C518.3 95 545.7 105 573 105C600.3 105 627.7 95 654.8 88C682 81 709 77 736.2 73C763.3 69 790.7 65 818 60C845.3 55 872.7 49 886.3 46L900 43L900 0L886.3 0C872.7 0 845.3 0 818 0C790.7 0 763.3 0 736.2 0C709 0 682 0 654.8 0C627.7 0 600.3 0 573 0C545.7 0 518.3 0 491 0C463.7 0 436.3 0 409 0C381.7 0 354.3 0 327 0C299.7 0 272.3 0 245.2 0C218 0 191 0 163.8 0C136.7 0 109.3 0 82 0C54.7 0 27.3 0 13.7 0L0 0Z" fill="#6198ff"></path><path d="M0 355L13.7 334C27.3 313 54.7 271 82 260C109.3 249 136.7 269 163.8 264C191 259 218 229 245.2 228C272.3 227 299.7 255 327 260C354.3 265 381.7 247 409 255C436.3 263 463.7 297 491 304C518.3 311 545.7 291 573 282C600.3 273 627.7 275 654.8 274C682 273 709 269 736.2 268C763.3 267 790.7 269 818 253C845.3 237 872.7 203 886.3 186L900 169L900 41L886.3 44C872.7 47 845.3 53 818 58C790.7 63 763.3 67 736.2 71C709 75 682 79 654.8 86C627.7 93 600.3 103 573 103C545.7 103 518.3 93 491 84C463.7 75 436.3 67 409 63C381.7 59 354.3 59 327 63C299.7 67 272.3 75 245.2 72C218 69 191 55 163.8 52C136.7 49 109.3 57 82 57C54.7 57 27.3 49 13.7 45L0 41Z" fill="#3c80ff"></path><path d="M0 421L13.7 401C27.3 381 54.7 341 82 329C109.3 317 136.7 333 163.8 342C191 351 218 353 245.2 364C272.3 375 299.7 395 327 393C354.3 391 381.7 367 409 364C436.3 361 463.7 379 491 376C518.3 373 545.7 349 573 348C600.3 347 627.7 369 654.8 381C682 393 709 395 736.2 399C763.3 403 790.7 409 818 380C845.3 351 872.7 287 886.3 255L900 223L900 167L886.3 184C872.7 201 845.3 235 818 251C790.7 267 763.3 265 736.2 266C709 267 682 271 654.8 272C627.7 273 600.3 271 573 280C545.7 289 518.3 309 491 302C463.7 295 436.3 261 409 253C381.7 245 354.3 263 327 258C299.7 253 272.3 225 245.2 226C218 227 191 257 163.8 262C136.7 267 109.3 247 82 258C54.7 269 27.3 311 13.7 332L0 353Z" fill="#0066ff"></path><path d="M0 541L13.7 538C27.3 535 54.7 529 82 525C109.3 521 136.7 519 163.8 523C191 527 218 537 245.2 538C272.3 539 299.7 531 327 528C354.3 525 381.7 527 409 532C436.3 537 463.7 545 491 547C518.3 549 545.7 545 573 540C600.3 535 627.7 529 654.8 528C682 527 709 531 736.2 530C763.3 529 790.7 523 818 518C845.3 513 872.7 509 886.3 507L900 505L900 221L886.3 253C872.7 285 845.3 349 818 378C790.7 407 763.3 401 736.2 397C709 393 682 391 654.8 379C627.7 367 600.3 345 573 346C545.7 347 518.3 371 491 374C463.7 377 436.3 359 409 362C381.7 365 354.3 389 327 391C299.7 393 272.3 373 245.2 362C218 351 191 349 163.8 340C136.7 331 109.3 315 82 327C54.7 339 27.3 379 13.7 399L0 419Z" fill="#0059dd"></path><path d="M0 601L13.7 601C27.3 601 54.7 601 82 601C109.3 601 136.7 601 163.8 601C191 601 218 601 245.2 601C272.3 601 299.7 601 327 601C354.3 601 381.7 601 409 601C436.3 601 463.7 601 491 601C518.3 601 545.7 601 573 601C600.3 601 627.7 601 654.8 601C682 601 709 601 736.2 601C763.3 601 790.7 601 818 601C845.3 601 872.7 601 886.3 601L900 601L900 503L886.3 505C872.7 507 845.3 511 818 516C790.7 521 763.3 527 736.2 528C709 529 682 525 654.8 526C627.7 527 600.3 533 573 538C545.7 543 518.3 547 491 545C463.7 543 436.3 535 409 530C381.7 525 354.3 523 327 526C299.7 529 272.3 537 245.2 536C218 535 191 525 163.8 521C136.7 517 109.3 519 82 523C54.7 527 27.3 533 13.7 536L0 539Z" fill="#004cbb"></path></svg>